<svg xmlns="http://www.w3.org/2000/svg" viewBox="0 0 371.53 342.27"><defs><style>.cls-1{fill:#424246;}.cls-2,.cls-4,.cls-5,.cls-6,.cls-7{fill:none;}.cls-2{stroke:#a2a2a3;stroke-width:3px;}.cls-11,.cls-2,.cls-4,.cls-5,.cls-6,.cls-7{stroke-miterlimit:10;}.cls-3{fill:#05dd5d;}.cls-4,.cls-6,.cls-7{stroke:#05dd5d;}.cls-4,.cls-5,.cls-6{stroke-linecap:round;}.cls-11,.cls-4,.cls-7{stroke-width:2px;}.cls-5{stroke:#fff;stroke-width:5px;}.cls-8{fill:#fff;}.cls-9{fill:#079e44;}.cls-10{fill:#f9a07d;}.cls-11{fill:#cfe0fb;stroke:#000;}</style></defs><g id="Camada_8" data-name="Camada 8"><path class="cls-1" d="M266.5,330.5c46.84-1.49,81.34-3.31,99-27.75,12.49-17.29,12.09-39.71,12-45-.58-32.63-19.77-39.05-22.5-67.5-3.23-33.6,22-40.47,24-75S358.34,42.19,325.75,24.5c-59.18-32.12-127.34,17.5-132,21-13.54,10.17-12.67,13.86-27,23.25-38,24.92-66.45,13.57-92.25,24C15.25,116.71-20,251.6,35,306.5c8.81,8.8,28.93,24.54,69.5,26.25C154.51,333,208.62,332.34,266.5,330.5Z" transform="translate(-7.59 -13.73)"/></g><g id="Camada_10" data-name="Camada 10"><rect class="cls-2" x="31.66" y="222.27" width="265.63" height="104.63" rx="14.06"/><circle class="cls-3" cx="164.84" cy="283.89" r="23.5"/><path class="cls-3" d="M241.25,311.38l18-11.3-18.07-11.49Z" transform="translate(-7.59 -13.73)"/><path class="cls-3" d="M228.25,311.38l18-11.3-18.07-11.49Z" transform="translate(-7.59 -13.73)"/><path class="cls-3" d="M103.14,311.38l-18-11.3,18.07-11.49Z" transform="translate(-7.59 -13.73)"/><path class="cls-3" d="M116.14,311.38l-18-11.3,18.07-11.49Z" transform="translate(-7.59 -13.73)"/><line class="cls-4" x1="54.66" y1="243.02" x2="276.66" y2="243.02"/></g><g id="Camada_11" data-name="Camada 11"><path class="cls-5" d="M178,287.19" transform="translate(-7.59 -13.73)"/><line class="cls-5" x1="158.5" y1="295.02" x2="158.5" y2="273.46"/><line class="cls-5" x1="170.41" y1="273.46" x2="170.41" y2="295.02"/><path class="cls-6" d="M196.12,92.56V86.08" transform="translate(-7.59 -13.73)"/><path class="cls-6" d="M197.12,92.56V81.28" transform="translate(-7.59 -13.73)"/><path class="cls-6" d="M198.12,92.56V75.47" transform="translate(-7.59 -13.73)"/><line class="cls-6" x1="191.53" y1="78.83" x2="191.53" y2="43.96"/><path class="cls-6" d="M200.12,92.56V71" transform="translate(-7.59 -13.73)"/><path class="cls-6" d="M201.12,92.56V80.62" transform="translate(-7.59 -13.73)"/><path class="cls-6" d="M202.12,92.56V85.32" transform="translate(-7.59 -13.73)"/><path class="cls-6" d="M203.12,92.56V87.5" transform="translate(-7.59 -13.73)"/><path class="cls-6" d="M204.12,92.56V88.71" transform="translate(-7.59 -13.73)"/><path class="cls-6" d="M205.12,92.56V89.37" transform="translate(-7.59 -13.73)"/><path class="cls-6" d="M211.12,92.56v-3.4" transform="translate(-7.59 -13.73)"/><path class="cls-6" d="M212.12,92.56V88.24" transform="translate(-7.59 -13.73)"/><path class="cls-6" d="M213.12,92.56V87" transform="translate(-7.59 -13.73)"/><path class="cls-6" d="M214.12,92.56V85" transform="translate(-7.59 -13.73)"/><path class="cls-6" d="M215.12,92.56V81" transform="translate(-7.59 -13.73)"/><path class="cls-6" d="M216.12,92.56V74.43" transform="translate(-7.59 -13.73)"/><path class="cls-6" d="M217.12,92.56V70.32" transform="translate(-7.59 -13.73)"/><path class="cls-6" d="M218.12,92.56V71.68" transform="translate(-7.59 -13.73)"/><path class="cls-6" d="M219.12,92.56V76.17" transform="translate(-7.59 -13.73)"/><path class="cls-6" d="M220.12,92.56V80.62" transform="translate(-7.59 -13.73)"/><path class="cls-6" d="M221.12,92.56V83.83" transform="translate(-7.59 -13.73)"/><path class="cls-6" d="M222.12,92.56V86.17" transform="translate(-7.59 -13.73)"/><path class="cls-6" d="M223.12,92.56V87.75" transform="translate(-7.59 -13.73)"/><path class="cls-6" d="M224.12,92.56v-3.4" transform="translate(-7.59 -13.73)"/><path class="cls-6" d="M234.12,92.56V87.89" transform="translate(-7.59 -13.73)"/><path class="cls-6" d="M235.12,92.56V72.39" transform="translate(-7.59 -13.73)"/><path class="cls-6" d="M236.12,92.56V74" transform="translate(-7.59 -13.73)"/><path class="cls-6" d="M237.12,92.56v-7" transform="translate(-7.59 -13.73)"/><path class="cls-6" d="M245.12,92.56V88.44" transform="translate(-7.59 -13.73)"/><path class="cls-6" d="M246.12,92.56V87.68" transform="translate(-7.59 -13.73)"/><path class="cls-6" d="M247.12,92.56V81.28" transform="translate(-7.59 -13.73)"/><path class="cls-6" d="M248.12,92.56V87.24" transform="translate(-7.59 -13.73)"/><path class="cls-6" d="M249.12,92.56V85.89" transform="translate(-7.59 -13.73)"/><path class="cls-6" d="M250.12,92.56c0-4.65,0-9.31,0-14" transform="translate(-7.59 -13.73)"/><path class="cls-6" d="M251.12,92.56V64.08" transform="translate(-7.59 -13.73)"/><path class="cls-6" d="M252.12,92.56V77.43" transform="translate(-7.59 -13.73)"/><path class="cls-6" d="M253.12,92.56v-11" transform="translate(-7.59 -13.73)"/><path class="cls-6" d="M254.12,92.56v-5.5" transform="translate(-7.59 -13.73)"/><path class="cls-6" d="M258.12,92.56V86.37" transform="translate(-7.59 -13.73)"/><path class="cls-6" d="M259.12,92.56V80.87" transform="translate(-7.59 -13.73)"/><path class="cls-6" d="M260.12,92.56v-20" transform="translate(-7.59 -13.73)"/><path class="cls-6" d="M261.12,92.56v-20" transform="translate(-7.59 -13.73)"/><path class="cls-6" d="M262.12,92.56c0-5.73,0-11.46,0-17.19" transform="translate(-7.59 -13.73)"/><path class="cls-6" d="M263.12,92.56v-11" transform="translate(-7.59 -13.73)"/><path class="cls-6" d="M264.12,92.56V84.92" transform="translate(-7.59 -13.73)"/><path class="cls-6" d="M265.12,92.56V88.45" transform="translate(-7.59 -13.73)"/><path class="cls-6" d="M269.12,92.56V87" transform="translate(-7.59 -13.73)"/><path class="cls-6" d="M270.12,92.56v-16" transform="translate(-7.59 -13.73)"/><path class="cls-6" d="M271.12,92.56V78.77" transform="translate(-7.59 -13.73)"/><path class="cls-6" d="M273.12,92.56V86.41" transform="translate(-7.59 -13.73)"/><path class="cls-6" d="M274.12,92.56V82.1" transform="translate(-7.59 -13.73)"/><path class="cls-6" d="M275.12,92.56V74.76" transform="translate(-7.59 -13.73)"/><line class="cls-6" x1="268.53" y1="78.83" x2="268.53" y2="43.96"/><path class="cls-6" d="M277.12,92.56V69" transform="translate(-7.59 -13.73)"/><path class="cls-6" d="M278.12,92.56V77.21" transform="translate(-7.59 -13.73)"/><path class="cls-6" d="M279.12,92.56v-7" transform="translate(-7.59 -13.73)"/><path class="cls-6" d="M280.12,92.56V88" transform="translate(-7.59 -13.73)"/><path class="cls-6" d="M281.12,92.56v-3.4" transform="translate(-7.59 -13.73)"/><path class="cls-6" d="M289.12,92.56V89.37" transform="translate(-7.59 -13.73)"/><path class="cls-6" d="M290.12,92.56V88.48" transform="translate(-7.59 -13.73)"/><path class="cls-6" d="M291.12,92.56V87.24" transform="translate(-7.59 -13.73)"/><path class="cls-6" d="M292.12,92.56v-9" transform="translate(-7.59 -13.73)"/><path class="cls-6" d="M293.12,92.56V74.08" transform="translate(-7.59 -13.73)"/><path class="cls-6" d="M294.12,92.56q0-12.72,0-25.45" transform="translate(-7.59 -13.73)"/><path class="cls-6" d="M295.12,92.56V70.3" transform="translate(-7.59 -13.73)"/><path class="cls-6" d="M296.12,92.56q0-9.59,0-19.18" transform="translate(-7.59 -13.73)"/><path class="cls-6" d="M297.12,92.56V77.9" transform="translate(-7.59 -13.73)"/><path class="cls-6" d="M298.12,92.56V83.21" transform="translate(-7.59 -13.73)"/><path class="cls-6" d="M299.12,92.56V87" transform="translate(-7.59 -13.73)"/><path class="cls-6" d="M300.12,92.56V88.94" transform="translate(-7.59 -13.73)"/><path class="cls-6" d="M311.12,92.56V88.71" transform="translate(-7.59 -13.73)"/><path class="cls-6" d="M312.12,92.56V72" transform="translate(-7.59 -13.73)"/><path class="cls-6" d="M313.12,92.56V75.12" transform="translate(-7.59 -13.73)"/><path class="cls-6" d="M314.12,92.56V83.83" transform="translate(-7.59 -13.73)"/><path class="cls-6" d="M315.12,92.56V88.94" transform="translate(-7.59 -13.73)"/><path class="cls-6" d="M322.12,92.56V88.24" transform="translate(-7.59 -13.73)"/><path class="cls-6" d="M323.12,92.56v-7" transform="translate(-7.59 -13.73)"/><path class="cls-6" d="M324.12,92.56V81.28" transform="translate(-7.59 -13.73)"/><path class="cls-6" d="M325.12,92.56V81.28" transform="translate(-7.59 -13.73)"/><path class="cls-6" d="M326.12,92.56V80" transform="translate(-7.59 -13.73)"/><path class="cls-6" d="M327.12,92.56V76.87" transform="translate(-7.59 -13.73)"/><path class="cls-6" d="M328.12,92.56q0-13.95,0-27.9" transform="translate(-7.59 -13.73)"/><path class="cls-6" d="M329.12,92.56V78.1" transform="translate(-7.59 -13.73)"/><path class="cls-6" d="M330.12,92.56v-6" transform="translate(-7.59 -13.73)"/><path class="cls-6" d="M331.12,92.56v-4" transform="translate(-7.59 -13.73)"/><path class="cls-6" d="M332.12,92.56V89.13" transform="translate(-7.59 -13.73)"/><path class="cls-6" d="M333.12,92.56V88.44" transform="translate(-7.59 -13.73)"/><path class="cls-6" d="M334.12,92.56V87.09" transform="translate(-7.59 -13.73)"/><path class="cls-6" d="M335.12,92.56V82.89" transform="translate(-7.59 -13.73)"/><path class="cls-6" d="M336.12,92.56c0-5.46,0-10.93,0-16.39" transform="translate(-7.59 -13.73)"/><path class="cls-6" d="M337.12,92.56q0-9.59,0-19.19" transform="translate(-7.59 -13.73)"/><path class="cls-6" d="M338.12,92.56V77.21" transform="translate(-7.59 -13.73)"/><path class="cls-6" d="M339.12,92.56V80.29" transform="translate(-7.59 -13.73)"/><path class="cls-6" d="M340.12,92.56V85.93" transform="translate(-7.59 -13.73)"/><path class="cls-6" d="M341.12,92.56V89.14" transform="translate(-7.59 -13.73)"/><path class="cls-6" d="M345.12,92.56v-16" transform="translate(-7.59 -13.73)"/><path class="cls-6" d="M346.12,92.56v-13" transform="translate(-7.59 -13.73)"/><path class="cls-6" d="M347.12,92.56V86.29" transform="translate(-7.59 -13.73)"/><path class="cls-6" d="M351.12,92.56V87" transform="translate(-7.59 -13.73)"/><path class="cls-6" d="M196.12,93.69v6.48" transform="translate(-7.59 -13.73)"/><path class="cls-6" d="M197.12,93.69V105" transform="translate(-7.59 -13.73)"/><path class="cls-6" d="M198.12,93.69v17.09" transform="translate(-7.59 -13.73)"/><line class="cls-6" x1="191.53" y1="79.96" x2="191.53" y2="114.83"/><path class="cls-6" d="M200.12,93.69v21.58" transform="translate(-7.59 -13.73)"/><path class="cls-6" d="M201.12,93.69v11.94" transform="translate(-7.59 -13.73)"/><path class="cls-6" d="M202.12,93.69v7.24" transform="translate(-7.59 -13.73)"/><path class="cls-6" d="M203.12,93.69v5.06" transform="translate(-7.59 -13.73)"/><path class="cls-6" d="M204.12,93.69v3.85" transform="translate(-7.59 -13.73)"/><path class="cls-6" d="M205.12,93.69v3.19" transform="translate(-7.59 -13.73)"/><path class="cls-6" d="M211.12,93.69v3.4" transform="translate(-7.59 -13.73)"/><path class="cls-6" d="M212.12,93.69V98" transform="translate(-7.59 -13.73)"/><path class="cls-6" d="M213.12,93.69v5.58" transform="translate(-7.59 -13.73)"/><path class="cls-6" d="M214.12,93.69v7.53" transform="translate(-7.59 -13.73)"/><path class="cls-6" d="M215.12,93.69V105.3" transform="translate(-7.59 -13.73)"/><path class="cls-6" d="M216.12,93.69v18.13" transform="translate(-7.59 -13.73)"/><path class="cls-6" d="M217.12,93.69v22.24" transform="translate(-7.59 -13.73)"/><path class="cls-6" d="M218.12,93.69v20.88" transform="translate(-7.59 -13.73)"/><path class="cls-6" d="M219.12,93.69v16.39" transform="translate(-7.59 -13.73)"/><path class="cls-6" d="M220.12,93.69v11.94" transform="translate(-7.59 -13.73)"/><path class="cls-6" d="M221.12,93.69v8.73" transform="translate(-7.59 -13.73)"/><path class="cls-6" d="M222.12,93.69v6.39" transform="translate(-7.59 -13.73)"/><path class="cls-6" d="M223.12,93.69V98.5" transform="translate(-7.59 -13.73)"/><path class="cls-6" d="M224.12,93.69v3.4" transform="translate(-7.59 -13.73)"/><path class="cls-6" d="M234.12,93.69v4.67" transform="translate(-7.59 -13.73)"/><path class="cls-6" d="M235.12,93.69v20.17" transform="translate(-7.59 -13.73)"/><path class="cls-6" d="M236.12,93.69v18.57" transform="translate(-7.59 -13.73)"/><path class="cls-6" d="M237.12,93.69v7" transform="translate(-7.59 -13.73)"/><path class="cls-6" d="M245.12,93.69v4.12" transform="translate(-7.59 -13.73)"/><path class="cls-6" d="M246.12,93.69v4.88" transform="translate(-7.59 -13.73)"/><path class="cls-6" d="M247.12,93.69V105" transform="translate(-7.59 -13.73)"/><path class="cls-6" d="M248.12,93.69V99" transform="translate(-7.59 -13.73)"/><path class="cls-6" d="M249.12,93.69v6.67" transform="translate(-7.59 -13.73)"/><path class="cls-6" d="M250.12,93.69c0,4.65,0,9.31,0,14" transform="translate(-7.59 -13.73)"/><path class="cls-6" d="M251.12,93.69v28.48" transform="translate(-7.59 -13.73)"/><path class="cls-6" d="M252.12,93.69v15.13" transform="translate(-7.59 -13.73)"/><path class="cls-6" d="M253.12,93.69v11" transform="translate(-7.59 -13.73)"/><path class="cls-6" d="M254.12,93.69v5.5" transform="translate(-7.59 -13.73)"/><path class="cls-6" d="M258.12,93.69v6.19" transform="translate(-7.59 -13.73)"/><path class="cls-6" d="M259.12,93.69v11.69" transform="translate(-7.59 -13.73)"/><path class="cls-6" d="M260.12,93.69v20" transform="translate(-7.59 -13.73)"/><path class="cls-6" d="M261.12,93.69v20" transform="translate(-7.59 -13.73)"/><path class="cls-6" d="M262.12,93.69c0,5.73,0,11.46,0,17.19" transform="translate(-7.59 -13.73)"/><path class="cls-6" d="M263.12,93.69v11" transform="translate(-7.59 -13.73)"/><path class="cls-6" d="M264.12,93.69v7.64" transform="translate(-7.59 -13.73)"/><path class="cls-6" d="M265.12,93.69V97.8" transform="translate(-7.59 -13.73)"/><path class="cls-6" d="M269.12,93.69v5.58" transform="translate(-7.59 -13.73)"/><path class="cls-6" d="M270.12,93.69v16" transform="translate(-7.59 -13.73)"/><path class="cls-6" d="M271.12,93.69v13.79" transform="translate(-7.59 -13.73)"/><path class="cls-6" d="M273.12,93.69v6.15" transform="translate(-7.59 -13.73)"/><path class="cls-6" d="M274.12,93.69v10.46" transform="translate(-7.59 -13.73)"/><path class="cls-6" d="M275.12,93.69v17.8" transform="translate(-7.59 -13.73)"/><line class="cls-6" x1="268.53" y1="79.96" x2="268.53" y2="114.83"/><path class="cls-6" d="M277.12,93.69v23.59" transform="translate(-7.59 -13.73)"/><path class="cls-6" d="M278.12,93.69V109" transform="translate(-7.59 -13.73)"/><path class="cls-6" d="M279.12,93.69v7" transform="translate(-7.59 -13.73)"/><path class="cls-6" d="M280.12,93.69v4.56" transform="translate(-7.59 -13.73)"/><path class="cls-6" d="M281.12,93.69v3.4" transform="translate(-7.59 -13.73)"/><path class="cls-6" d="M289.12,93.69v3.19" transform="translate(-7.59 -13.73)"/><path class="cls-6" d="M290.12,93.69v4.08" transform="translate(-7.59 -13.73)"/><path class="cls-6" d="M291.12,93.69V99" transform="translate(-7.59 -13.73)"/><path class="cls-6" d="M292.12,93.69v9" transform="translate(-7.59 -13.73)"/><path class="cls-6" d="M293.12,93.69v18.48" transform="translate(-7.59 -13.73)"/><path class="cls-6" d="M294.12,93.69q0,12.72,0,25.45" transform="translate(-7.59 -13.73)"/><path class="cls-6" d="M295.12,93.69V116" transform="translate(-7.59 -13.73)"/><path class="cls-6" d="M296.12,93.69q0,9.59,0,19.18" transform="translate(-7.59 -13.73)"/><path class="cls-6" d="M297.12,93.69v14.66" transform="translate(-7.59 -13.73)"/><path class="cls-6" d="M298.12,93.69V103" transform="translate(-7.59 -13.73)"/><path class="cls-6" d="M299.12,93.69v5.58" transform="translate(-7.59 -13.73)"/><path class="cls-6" d="M300.12,93.69v3.62" transform="translate(-7.59 -13.73)"/><path class="cls-6" d="M311.12,93.69v3.85" transform="translate(-7.59 -13.73)"/><path class="cls-6" d="M312.12,93.69v20.56" transform="translate(-7.59 -13.73)"/><path class="cls-6" d="M313.12,93.69v17.43" transform="translate(-7.59 -13.73)"/><path class="cls-6" d="M314.12,93.69v8.73" transform="translate(-7.59 -13.73)"/><path class="cls-6" d="M315.12,93.69v3.62" transform="translate(-7.59 -13.73)"/><path class="cls-6" d="M322.12,93.69V98" transform="translate(-7.59 -13.73)"/><path class="cls-6" d="M323.12,93.69v7" transform="translate(-7.59 -13.73)"/><path class="cls-6" d="M324.12,93.69V105" transform="translate(-7.59 -13.73)"/><path class="cls-6" d="M325.12,93.69V105" transform="translate(-7.59 -13.73)"/><path class="cls-6" d="M326.12,93.69V106.3" transform="translate(-7.59 -13.73)"/><path class="cls-6" d="M327.12,93.69v15.69" transform="translate(-7.59 -13.73)"/><path class="cls-6" d="M328.12,93.69q0,13.95,0,27.9" transform="translate(-7.59 -13.73)"/><path class="cls-6" d="M329.12,93.69v14.46" transform="translate(-7.59 -13.73)"/><path class="cls-6" d="M330.12,93.69v6" transform="translate(-7.59 -13.73)"/><path class="cls-6" d="M331.12,93.69v4" transform="translate(-7.59 -13.73)"/><path class="cls-6" d="M332.12,93.69v3.43" transform="translate(-7.59 -13.73)"/><path class="cls-6" d="M333.12,93.69v4.12" transform="translate(-7.59 -13.73)"/><path class="cls-6" d="M334.12,93.69v5.47" transform="translate(-7.59 -13.73)"/><path class="cls-6" d="M335.12,93.69v9.67" transform="translate(-7.59 -13.73)"/><path class="cls-6" d="M336.12,93.69c0,5.46,0,10.93,0,16.39" transform="translate(-7.59 -13.73)"/><path class="cls-6" d="M337.12,93.69q0,9.59,0,19.19" transform="translate(-7.59 -13.73)"/><path class="cls-6" d="M338.12,93.69V109" transform="translate(-7.59 -13.73)"/><path class="cls-6" d="M339.12,93.69V106" transform="translate(-7.59 -13.73)"/><path class="cls-6" d="M340.12,93.69v6.63" transform="translate(-7.59 -13.73)"/><path class="cls-6" d="M341.12,93.69v3.42" transform="translate(-7.59 -13.73)"/><path class="cls-6" d="M345.12,93.69v16" transform="translate(-7.59 -13.73)"/><path class="cls-6" d="M346.12,93.69v13" transform="translate(-7.59 -13.73)"/><path class="cls-6" d="M347.12,93.69V100" transform="translate(-7.59 -13.73)"/><path class="cls-6" d="M351.12,93.69v5.58" transform="translate(-7.59 -13.73)"/><line class="cls-7" x1="188.03" y1="79.43" x2="344.03" y2="79.43"/><circle class="cls-3" cx="300.28" cy="156.33" r="29"/><path class="cls-8" d="M304.12,155.5q-2.75,12.57-5.5,25.12L321,173Z" transform="translate(-7.59 -13.73)"/><circle class="cls-3" cx="24.72" cy="50.71" r="23.06"/><path class="cls-8" d="M43.43,57a7.19,7.19,0,0,1-.58,5.46l-.13.26L35.84,75.37,23,68.35a7.18,7.18,0,1,1,6.88-12.61l.26.14.14-.26A7.18,7.18,0,0,1,43.43,57Z" transform="translate(-7.59 -13.73)"/></g><g id="Camada_12" data-name="Camada 12"><path class="cls-9" d="M117.31,337.56a2.67,2.67,0,0,0-2.43,2.44,2.56,2.56,0,0,0,1,1.88L146.62,356l24.63-.25a7.9,7.9,0,0,0-.09-2.07c0-.24-.1-.47-.16-.68l-1.74-.45" transform="translate(-7.59 -13.73)"/><path class="cls-9" d="M267.56,232.61a4.08,4.08,0,0,1,.49.45,4.33,4.33,0,0,1,1,2.94l-59.09.12a3,3,0,0,1-1.06-2.12,3.17,3.17,0,0,1,1.24-2.56" transform="translate(-7.59 -13.73)"/></g><g id="Camada_4" data-name="Camada 4"><path class="cls-3" d="M127,317c-2.25,1.62-2.51,4.05-5.5,10.5a96.5,96.5,0,0,1-6,11L147,353h24a12.62,12.62,0,0,0-3-4c-4.68-4.13-10.93-3.18-12-3a20.37,20.37,0,0,1-9-9,24.8,24.8,0,0,1-2-8,36.52,36.52,0,0,1,0-9C134.26,314.41,129.43,315.26,127,317Z" transform="translate(-7.59 -13.73)"/><path class="cls-3" d="M209,212a49.88,49.88,0,0,1,1,14,49.26,49.26,0,0,1-1,7h59a14.59,14.59,0,0,0-4-4,16,16,0,0,0-12-2,72.52,72.52,0,0,1-29-22Z" transform="translate(-7.59 -13.73)"/></g><g id="Camada_3" data-name="Camada 3"><path d="M76,222c4.58,12.32,10.89,18.05,16,21,3.31,1.91,5.18,2.11,26,10,5.94,2.25,9.29,3.58,11,7s.89,6.8-2,15c-6.19,17.6-9.4,20.52-10,28-.33,4.17.1,10.29,4,18a106.12,106.12,0,0,1,28,7,44.79,44.79,0,0,0,11-11c4.95-7.14,4.73-11.53,10-31,3.79-14,4.86-15.26,6-23,1.54-10.48,2.32-15.74,0-22-2.77-7.47-8.32-12-17-19a105.09,105.09,0,0,0-13-9,161.41,161.41,0,0,1,22-17c4.13-2.65,8.15-5,12-7,1.21,2.53,3,6.32,5,11,3,7,3.44,8.76,5,11,2.2,3.16,6.35,6.9,15,9,4-2.65,8.37-5.33,13-8,4.47-2.57,8.82-4.9,13-7a22.42,22.42,0,0,0,0-11c-1.47-5.46-4.53-7.54-9-14-4.64-6.71-3.51-7.62-8-15-4.21-6.92-7.66-12.58-14-17-11.59-8.07-24.91-6.46-28-6-5.37.8-9.55,2.56-19,8-12.67,7.29-21.21,12.2-32,21C99.18,188.79,84.2,209.39,76,222Z" transform="translate(-7.59 -13.73)"/></g><g id="Camada_5" data-name="Camada 5"><path class="cls-10" d="M179,108a3.65,3.65,0,0,1,0,3,3.59,3.59,0,0,1-3,2c-.23,2.34-.57,5.81-1,10-2,19.42-3.2,26.93-7,35-2.95,6.26-5.2,8.05-7,9-4.68,2.48-10.68,1.66-15-1a16.88,16.88,0,0,1-7-9c16-15.95,23.47-31.69,27-44.42.24-.86.47-1.72.68-2.58l5.05,2.48,3.48-3.23Z" transform="translate(-7.59 -13.73)"/><path class="cls-10" d="M114,52a35.79,35.79,0,0,1,10,16c1.12,3.87,2.18,7.78,0,11-2.3,3.39-6.75,3.9-8,4V95H101c.23-2.58.55-5.25,1-8A111.93,111.93,0,0,1,114,52Z" transform="translate(-7.59 -13.73)"/><rect class="cls-11" x="164.56" y="78.5" width="16.89" height="32.36" rx="1" transform="translate(66.09 -89.43) rotate(31.07)"/><path class="cls-10" d="M175.25,109.25c.24-1.74.52-3.19.75-4.25a7.85,7.85,0,0,1,1-3c.84-1.25,2.4-2.38,3-2,.88.56-1.67,3.55-1,8" transform="translate(-7.59 -13.73)"/><path class="cls-10" d="M160.09,101.8A2.15,2.15,0,0,0,162,101a2.63,2.63,0,0,0,.27-2.72,3.51,3.51,0,0,0,1.15.24,2.19,2.19,0,0,0,1.41-.31,1.81,1.81,0,0,0,.72-1.15,1.94,1.94,0,0,0-.82-1.87,2.52,2.52,0,0,0,.94-.12A2.18,2.18,0,0,0,167,94a2.15,2.15,0,0,0-.06-1.81A2.33,2.33,0,0,0,169,91a2,2,0,0,0,0-2c-.51-.73-1.53-.72-2.32-.7a3.85,3.85,0,0,0-2,.56,3.31,3.31,0,0,0-.94.84,3.4,3.4,0,0,0-.63,2.11,3,3,0,0,0-1.55,1,3.14,3.14,0,0,0-.51,2.62,2.16,2.16,0,0,0-1.48.63,2.26,2.26,0,0,0-.23,2.58A2.11,2.11,0,0,0,159,101,1.79,1.79,0,0,0,160.09,101.8Z" transform="translate(-7.59 -13.73)"/><rect x="178.33" y="80.82" width="4.66" height="1.57" rx="0.79" transform="translate(60.44 -95.26) rotate(31.07)"/></g><g id="Camada_6" data-name="Camada 6"><path class="cls-10" d="M144.5,66.5" transform="translate(-7.59 -13.73)"/><path d="M107.5,83.88l2-3q.23-6.78.44-13.54a4.81,4.81,0,0,1,3-.32c2.74.65,4,4.12,4.36,3.93.21-.1-.14-1.32-1.13-4-1.52-4.1-2-4.6-2.1-6.24a21.09,21.09,0,0,1,.23-3.93c.36-3.39.73-3.59.52-4.69a5.79,5.79,0,0,0-4.32-4.5,5.73,5.73,0,0,0-5.9,2.77,9.45,9.45,0,0,0-5.16.7,9.62,9.62,0,0,0-4.08,3.42l-3.56,0c-.9-1.21-3.38-4.22-6.94-4.45-6-.39-10.17,7.52-11.34,9.75a27.13,27.13,0,0,0-2.72,13.5c0,3.85,0,6.72,1.59,9.56,3.82,7,13.59,7.78,15.1,7.88a74.82,74.82,0,0,1,1.31-25.78,45,45,0,0,0,18.75,19Z" transform="translate(-7.59 -13.73)"/><path d="M116,83l-6-.31L116,87.18C116,85.79,116,84.39,116,83Z" transform="translate(-7.59 -13.73)"/></g><g id="Camada_7" data-name="Camada 7"><path class="cls-3" d="M102.88,50.28a25.28,25.28,0,0,0,4.06,12.28l-3.28,2.16a41.32,41.32,0,0,1-3.47-7.5c-1.61-4.65-1-5.71-.64-6.14C100.37,50.13,101.93,50.17,102.88,50.28Z" transform="translate(-7.59 -13.73)"/><ellipse class="cls-3" cx="100.3" cy="52.98" rx="5.93" ry="5.98"/></g><g id="Camada_2" data-name="Camada 2"><path class="cls-3" d="M155.56,136.25A39.56,39.56,0,0,1,151,149a40.53,40.53,0,0,1-15,15l-9-7-10,12,3,4a164.63,164.63,0,0,1-18,25,164.5,164.5,0,0,1-26,24,79.38,79.38,0,0,1-11-16c-23.17-44.63,6.61-93.5,14-104,9.49-13.49,18-14.78,20-15a21.66,21.66,0,0,1,9,1c7.45,2.54,11.47,8.75,13,11C126.21,106.66,136.5,118.15,155.56,136.25Z" transform="translate(-7.59 -13.73)"/><path d="M127,157a98.68,98.68,0,0,1-14.56-14.19c-7.56-9.06-16.1-19.31-14.69-31.56a25.25,25.25,0,0,1,3-9.25,26.3,26.3,0,0,0-3.87,11c-1.21,11.14,5.66,20.24,13.5,30.62a115.93,115.93,0,0,0,14.51,15.91Z" transform="translate(-7.59 -13.73)"/></g></svg>